<?xml version="1.0" standalone="no"?>
<!DOCTYPE svg PUBLIC "-//W3C//DTD SVG 20010904//EN"
 "http://www.w3.org/TR/2001/REC-SVG-20010904/DTD/svg10.dtd">
<svg version="1.0" xmlns="http://www.w3.org/2000/svg"
 width="887.000000pt" height="887.000000pt" viewBox="0 0 887.000000 887.000000"
 preserveAspectRatio="xMidYMid meet">
<metadata>
Created by potrace 1.11, written by Peter Selinger 2001-2013
</metadata>
<g transform="translate(0.000000,887.000000) scale(0.100000,-0.100000)"
fill="#000000" stroke="none">
<path d="M4120 8859 c-1561 -116 -2936 -1030 -3639 -2419 -789 -1557 -593
-3431 500 -4785 137 -170 333 -385 436 -480 731 -669 1616 -1064 2603 -1160
190 -19 640 -19 830 0 1047 102 1990 545 2725 1280 601 601 1009 1345 1195
2177 71 319 100 594 100 963 0 280 -13 457 -49 693 -152 988 -662 1934 -1388
2576 -420 372 -810 621 -1284 821 -624 263 -1360 384 -2029 334z m380 -1789
l0 -910 766 0 767 0 -6 -82 c-4 -46 -7 -199 -7 -340 l0 -258 -760 0 -760 0 0
-1642 c0 -1573 1 -1647 19 -1735 61 -293 283 -456 601 -440 163 9 302 61 486
184 94 62 135 73 187 48 46 -22 57 -36 217 -299 l134 -219 -54 -49 c-123 -110
-343 -237 -540 -311 -333 -124 -732 -157 -1059 -86 -451 98 -746 379 -866 823
-61 230 -59 138 -62 2014 l-4 1712 -342 0 c-310 0 -346 2 -382 19 -93 43 -104
79 -105 349 0 116 3 212 8 212 20 0 854 109 856 112 1 1 51 371 109 822 114
867 115 873 175 930 51 47 101 55 375 55 l247 1 0 -910z"/>
</g>
</svg>
